<svg xmlns="http://www.w3.org/2000/svg" width="24" height="24" viewBox="0 0 24 24" fill="none">
  <path d="M17.05 12.536c.016 1.454.654 2.854 1.761 3.861-2.089.321-4.164-.396-5.813-1.857-1.649-1.461-2.783-3.452-3.136-5.615 1.412-.061 2.711.807 3.518 2.091.153-.242.363-.472.555-.702.383-.475.766-.95 1.188-1.409.632-.665 1.383-1.191 2.295-1.549 1.021-.392 2.057-.346 3.105-.175.048 0 .086.024.086.071 0 .047-.024.088-.071.098-1.064.299-1.993.821-2.732 1.623-1.055 1.161-1.641 2.564-1.684 4.137.984-.391 1.721-1.14 2.192-2.067.374.823.567 1.72.568 2.629l.01.004c0 .077-.064.104-.127.071-.806-.396-1.526-.891-1.96-1.701-.397-.799-.458-1.674-.451-2.563-.012-.304.048-.608.172-.889.123-.281.307-.531.537-.731-1.101.072-1.957.783-2.43 1.77-.555 1.147-.723 2.421-.578 3.685v.218z" fill="black"/>
  <path d="M12.583 8.091c-.304-.793-.709-1.585-1.406-2.127-.524-.415-1.169-.641-1.834-.642-.32-.003-.638.045-.944.142-.306.098-.594.243-.851.429-.501.369-.908.858-1.191 1.425-.584 1.255-.616 2.703-.296 4.037.303 1.191.809 2.313 1.489 3.313.616.908 1.337 1.77 2.325 2.237.381.196.793.296 1.209.292.393.03.787-.026 1.157-.165.37-.139.711-.348 1.005-.617-.055-.035-.135-.049-.171-.095-1.102-1.323-1.864-2.957-2.176-4.699-.199-1.154-.208-2.336-.033-3.494.042-.34.115-.677.21-1.007l.507-.03z" fill="black"/>
</svg>
